<svg xmlns="http://www.w3.org/2000/svg" width="260" height="260" viewBox="0 0 260 260">
<g>
<path d="M 213.35 250.51 C207.68,251.72 193.32,251.95 130.00,251.87 C87.93,251.81 51.47,251.41 49.00,250.97 C29.59,247.52 14.00,232.84 9.51,213.77 C8.27,208.53 8.03,194.89 8.01,130.39 C8.01,83.23 8.39,51.18 9.00,47.89 C12.31,30.01 27.30,14.28 45.54,9.53 C54.35,7.24 205.65,7.24 214.46,9.53 C231.13,13.87 244.15,26.05 249.04,41.86 C250.92,47.95 251.00,51.53 251.00,129.92 C251.00,201.56 250.80,212.31 249.41,217.07 C244.67,233.34 229.93,247.00 213.35,250.51 ZM 119.68 216.93 C145.89,219.91 173.80,209.05 190.49,189.38 C201.90,175.94 208.88,159.91 211.02,142.25 C213.50,121.86 207.15,98.45 194.74,82.21 L 190.70 76.92 L 193.59 73.71 C195.18,71.95 196.82,70.08 197.24,69.56 C197.67,69.02 199.27,69.84 201.00,71.50 L 204.02 74.39 L 208.01 70.49 C210.20,68.35 212.00,66.05 212.00,65.39 C212.00,64.10 191.71,44.45 188.74,42.86 C187.34,42.11 186.25,42.70 183.49,45.71 C179.34,50.22 179.20,51.56 182.50,55.00 L 184.99 57.60 L 181.25 61.21 L 177.50 64.83 L 170.25 60.55 C152.76,50.22 132.29,46.80 112.44,50.90 C86.84,56.18 66.16,71.59 54.53,94.07 C47.25,108.14 45.49,115.85 45.55,133.50 C45.60,147.62 45.79,149.06 48.78,158.00 C59.45,189.93 87.54,213.27 119.68,216.93 ZM 146.44 206.01 C132.12,209.68 113.10,208.24 99.50,202.47 C94.04,200.15 83.07,192.96 77.99,188.37 C71.65,182.65 65.45,174.08 61.04,164.96 C56.69,155.97 56.72,155.55 62.16,147.81 C63.90,145.33 63.97,144.27 63.01,134.09 C62.44,128.02 62.24,121.35 62.57,119.26 C63.05,116.26 62.77,115.10 61.22,113.69 C59.30,111.96 59.21,112.03 57.53,116.21 C56.58,118.57 54.96,123.65 53.92,127.50 L 52.04 134.50 L 52.60 128.00 C54.25,108.94 62.61,92.00 76.81,78.91 C85.53,70.88 92.57,66.62 103.74,62.66 C112.05,59.71 113.28,59.54 127.50,59.53 C141.38,59.51 143.10,59.72 150.50,62.31 C191.03,76.51 211.11,118.04 197.10,158.70 C193.02,170.53 188.72,177.26 179.00,186.99 C169.16,196.84 158.93,202.82 146.44,206.01 ZM 77.81 150.13 C83.69,153.20 88.60,155.78 88.72,155.86 C88.83,155.94 93.50,152.78 99.07,148.85 L 109.22 141.70 L 108.64 137.10 C108.32,134.57 107.75,127.83 107.38,122.12 L 106.70 111.74 L 95.27 106.37 C88.98,103.42 83.39,101.00 82.84,101.00 C81.53,101.00 71.27,108.98 67.60,112.85 L 64.71 115.92 L 65.31 128.21 C65.64,134.97 66.18,141.41 66.51,142.52 C66.90,143.82 70.93,146.54 77.81,150.13 ZM 112.87 192.11 C117.62,194.19 121.72,195.90 122.00,195.92 C122.28,195.93 126.46,193.01 131.31,189.44 C137.73,184.69 139.98,182.47 139.63,181.22 C139.36,180.27 138.60,174.68 137.93,168.79 L 136.72 158.07 L 123.52 151.42 L 110.33 144.77 L 100.67 151.46 C95.35,155.14 91.00,158.68 90.99,159.33 C90.99,159.97 91.94,165.57 93.10,171.77 L 95.23 183.05 L 99.73 185.69 C102.21,187.14 108.12,190.03 112.87,192.11 ZM 97.50 103.84 C103.55,106.60 109.18,108.63 110.00,108.36 C110.82,108.08 114.93,106.67 119.13,105.22 L 126.76 102.58 L 131.40 93.23 L 136.04 83.89 L 128.38 74.86 C124.17,69.89 120.02,65.56 119.17,65.23 C116.77,64.31 105.30,67.62 97.28,71.55 C90.34,74.94 89.99,75.28 88.57,80.08 C86.07,88.49 84.65,97.06 85.61,97.97 C86.10,98.44 91.45,101.08 97.50,103.84 ZM 134.52 138.64 C138.58,141.60 145.04,139.10 144.97,134.60 C144.95,133.17 150.56,127.07 162.55,115.50 C176.19,102.34 180.01,98.10 179.47,96.75 C179.10,95.79 178.15,95.00 177.37,95.00 C176.60,95.00 167.92,102.20 158.09,111.00 C148.26,119.80 139.55,127.00 138.72,127.00 C137.90,127.00 136.20,127.83 134.94,128.84 C132.07,131.18 131.83,136.67 134.52,138.64 ZM 112.50 201.53 C120.80,203.34 121.00,203.32 121.00,200.50 C121.00,199.06 120.42,198.00 119.64,198.00 C118.89,198.00 112.56,195.13 105.56,191.63 L 92.83 185.25 L 87.67 186.42 L 82.50 187.59 L 88.00 191.27 C94.60,195.68 104.31,199.75 112.50,201.53 ZM 180.10 134.11 C180.87,134.61 183.75,134.90 186.50,134.76 C190.75,134.54 191.50,134.20 191.50,132.50 C191.50,130.77 190.73,130.46 185.74,130.20 C181.12,129.96 179.85,130.23 179.34,131.55 C178.98,132.48 179.32,133.60 180.10,134.11 ZM 145.23 82.75 C146.97,84.89 148.00,84.16 150.08,79.32 C152.23,74.29 151.98,71.66 149.38,72.18 C147.18,72.61 143.86,81.07 145.23,82.75 ZM 167.14 181.50 C170.29,185.10 172.26,185.58 172.78,182.87 C173.19,180.79 166.64,173.48 165.18,174.39 C163.24,175.59 163.82,177.73 167.14,181.50 Z" fill="rgb(17,50,178)"/>
<path d="M 0.00 130.00 L 0.00 0.00 L 130.00 0.00 L 260.00 0.00 L 260.00 130.00 L 260.00 260.00 L 130.00 260.00 L 0.00 260.00 L 0.00 130.00 ZM 213.35 250.51 C229.93,247.00 244.67,233.34 249.41,217.07 C250.80,212.31 251.00,201.56 251.00,129.92 C251.00,51.53 250.92,47.95 249.04,41.86 C244.15,26.05 231.13,13.87 214.46,9.53 C205.65,7.24 54.35,7.24 45.54,9.53 C27.30,14.28 12.31,30.01 9.00,47.89 C8.39,51.18 8.01,83.23 8.01,130.39 C8.03,194.89 8.27,208.53 9.51,213.77 C14.00,232.84 29.59,247.52 49.00,250.97 C51.47,251.41 87.93,251.81 130.00,251.87 C193.32,251.95 207.68,251.72 213.35,250.51 ZM 119.68 216.93 C87.54,213.27 59.45,189.93 48.78,158.00 C45.79,149.06 45.60,147.62 45.55,133.50 C45.49,115.85 47.25,108.14 54.53,94.07 C66.16,71.59 86.84,56.18 112.44,50.90 C132.29,46.80 152.76,50.22 170.25,60.55 L 177.50 64.83 L 181.25 61.21 L 184.99 57.60 L 182.50 55.00 C179.20,51.56 179.34,50.22 183.49,45.71 C186.25,42.70 187.34,42.11 188.74,42.86 C191.71,44.45 212.00,64.10 212.00,65.39 C212.00,66.05 210.20,68.35 208.01,70.49 L 204.02 74.39 L 201.00 71.50 C199.27,69.84 197.67,69.02 197.24,69.56 C196.82,70.08 195.18,71.95 193.59,73.71 L 190.70 76.92 L 194.74 82.21 C207.15,98.45 213.50,121.86 211.02,142.25 C208.88,159.91 201.90,175.94 190.49,189.38 C173.80,209.05 145.89,219.91 119.68,216.93 ZM 146.44 206.01 C158.93,202.82 169.16,196.84 179.00,186.99 C188.72,177.26 193.02,170.53 197.10,158.70 C211.11,118.04 191.03,76.51 150.50,62.31 C143.10,59.72 141.38,59.51 127.50,59.53 C113.28,59.54 112.05,59.71 103.74,62.66 C92.57,66.62 85.53,70.88 76.81,78.91 C62.61,92.00 54.25,108.94 52.60,128.00 L 52.04 134.50 L 53.92 127.50 C54.96,123.65 56.58,118.57 57.53,116.21 C59.21,112.03 59.30,111.96 61.22,113.69 C62.77,115.10 63.05,116.26 62.57,119.26 C62.24,121.35 62.44,128.02 63.01,134.09 C63.97,144.27 63.90,145.33 62.16,147.81 C56.72,155.55 56.69,155.97 61.04,164.96 C65.45,174.08 71.65,182.65 77.99,188.37 C83.07,192.96 94.04,200.15 99.50,202.47 C113.10,208.24 132.12,209.68 146.44,206.01 ZM 112.50 201.53 C104.31,199.75 94.60,195.68 88.00,191.27 L 82.50 187.59 L 87.67 186.42 L 92.83 185.25 L 105.56 191.63 C112.56,195.13 118.89,198.00 119.64,198.00 C120.42,198.00 121.00,199.06 121.00,200.50 C121.00,203.32 120.80,203.34 112.50,201.53 ZM 112.87 192.11 C108.12,190.03 102.21,187.14 99.73,185.69 L 95.23 183.05 L 93.10 171.77 C91.94,165.57 90.99,159.97 90.99,159.33 C91.00,158.68 95.35,155.14 100.67,151.46 L 110.33 144.77 L 123.52 151.42 L 136.72 158.07 L 137.93 168.79 C138.60,174.68 139.36,180.27 139.63,181.22 C139.98,182.47 137.73,184.69 131.31,189.44 C126.46,193.01 122.28,195.93 122.00,195.92 C121.72,195.90 117.62,194.19 112.87,192.11 ZM 167.14 181.50 C163.82,177.73 163.24,175.59 165.18,174.39 C166.64,173.48 173.19,180.79 172.78,182.87 C172.26,185.58 170.29,185.10 167.14,181.50 ZM 77.81 150.13 C70.93,146.54 66.90,143.82 66.51,142.52 C66.18,141.41 65.64,134.97 65.31,128.21 L 64.71 115.92 L 67.60 112.85 C71.27,108.98 81.53,101.00 82.84,101.00 C83.39,101.00 88.98,103.42 95.27,106.37 L 106.70 111.74 L 107.38 122.12 C107.75,127.83 108.32,134.57 108.64,137.10 L 109.22 141.70 L 99.07 148.85 C93.50,152.78 88.83,155.94 88.72,155.86 C88.60,155.78 83.69,153.20 77.81,150.13 ZM 134.52 138.64 C131.83,136.67 132.07,131.18 134.94,128.84 C136.20,127.83 137.90,127.00 138.72,127.00 C139.55,127.00 148.26,119.80 158.09,111.00 C167.92,102.20 176.60,95.00 177.37,95.00 C178.15,95.00 179.10,95.79 179.47,96.75 C180.01,98.10 176.19,102.34 162.55,115.50 C150.56,127.07 144.95,133.17 144.97,134.60 C145.04,139.10 138.58,141.60 134.52,138.64 ZM 180.10 134.11 C179.32,133.60 178.98,132.48 179.34,131.55 C179.85,130.23 181.12,129.96 185.74,130.20 C190.73,130.46 191.50,130.77 191.50,132.50 C191.50,134.20 190.75,134.54 186.50,134.76 C183.75,134.90 180.87,134.61 180.10,134.11 ZM 97.50 103.84 C91.45,101.08 86.10,98.44 85.61,97.97 C84.65,97.06 86.07,88.49 88.57,80.08 C89.99,75.28 90.34,74.94 97.28,71.55 C105.30,67.62 116.77,64.31 119.17,65.23 C120.02,65.56 124.17,69.89 128.38,74.86 L 136.04 83.89 L 131.40 93.23 L 126.76 102.58 L 119.13 105.22 C114.93,106.67 110.82,108.08 110.00,108.36 C109.18,108.63 103.55,106.60 97.50,103.84 ZM 145.23 82.75 C143.86,81.07 147.18,72.61 149.38,72.18 C151.98,71.66 152.23,74.29 150.08,79.32 C148.00,84.16 146.97,84.89 145.23,82.75 Z" fill="rgb(246,248,251)"/>
</g>
</svg>